<svg width="20" height="20" viewBox="0 0 151 144" fill="none" xmlns="http://www.w3.org/2000/svg">
<path d="M71.6958 3.7082C72.8932 0.0229537 78.1068 0.0229609 79.3042 3.7082L94.2469 49.6971C94.7824 51.3452 96.3182 52.461 98.0511 52.461H146.407C150.282 52.461 151.893 57.4195 148.758 59.6971L109.637 88.1198C108.235 89.1383 107.649 90.9438 108.184 92.5919L123.127 138.581C124.324 142.266 120.106 145.331 116.972 143.053L77.8511 114.63C76.4492 113.612 74.5508 113.612 73.1489 114.63L34.0284 143.053C30.8935 145.331 26.6756 142.266 27.873 138.581L42.8157 92.5919C43.3512 90.9438 42.7646 89.1383 41.3626 88.1198L2.24214 59.6971C-0.892714 57.4195 0.718395 52.461 4.59329 52.461H52.9489C54.6818 52.461 56.2176 51.3452 56.7531 49.6971L71.6958 3.7082Z" fill="white"/>
</svg>
