<svg width="150" height="150" viewBox="0 0 150 150" fill="none" xmlns="http://www.w3.org/2000/svg">
<path d="M75 0C84.8491 1.1745e-07 94.6018 1.93993 103.701 5.70904C112.801 9.47814 121.069 15.0026 128.033 21.967C134.997 28.9314 140.522 37.1993 144.291 46.2988C148.06 55.3982 150 65.1509 150 75C150 84.8492 148.06 94.6019 144.291 103.701C140.522 112.801 134.997 121.069 128.033 128.033C121.069 134.997 112.801 140.522 103.701 144.291C94.6018 148.06 84.8491 150 75 150L75 75L75 0Z" fill="#494949"/>
<path d="M75 150C55.1088 150 36.0322 142.098 21.967 128.033C7.90176 113.968 -5.53337e-07 94.8912 0 75C5.53337e-07 55.1088 7.90176 36.0322 21.967 21.967C36.0322 7.90176 55.1088 -2.37201e-07 75 0L75 75L75 150Z" fill="white"/>
</svg>
